<svg width="16" height="16" viewBox="0 0 16 16" fill="none" xmlns="http://www.w3.org/2000/svg">
<path fill-rule="evenodd" clip-rule="evenodd" d="M5.73094 5.37609H8.59603V6.80323C9.00874 5.98243 10.0671 5.24494 11.6571 5.24494C14.705 5.24494 15.4286 6.87883 15.4286 9.8766V15.4286H12.3429V10.5593C12.3429 8.85214 11.9301 7.8894 10.8795 7.8894C9.42223 7.8894 8.81666 8.92697 8.81666 10.5585V15.4286H5.73094V5.37609ZM0.439714 15.2974H3.52543V5.24494H0.439714V15.2974ZM3.96746 1.96714C3.96757 2.22578 3.91628 2.48187 3.81656 2.72051C3.71683 2.95915 3.57067 3.1756 3.38657 3.35726C3.01351 3.72802 2.50854 3.93556 1.98257 3.93429C1.45753 3.93393 0.953726 3.72693 0.580114 3.35803C0.396677 3.17575 0.251012 2.95906 0.151465 2.72039C0.0519183 2.48172 0.000446759 2.22574 0 1.96714C0 1.44489 0.208286 0.945 0.580886 0.576257C0.954169 0.206865 1.45819 -0.00023082 1.98334 1.93061e-07C2.50946 1.93061e-07 3.01397 0.207514 3.38657 0.576257C3.7584 0.945 3.96746 1.44489 3.96746 1.96714Z" fill="#F2F2F2"/>
</svg>
