<svg width="128" height="52" viewBox="0 0 128 52" fill="none" xmlns="http://www.w3.org/2000/svg">
<path d="M59.4913 14.977C59.8795 14.9191 60.4455 14.96 60.8597 14.9378C64.9861 14.7169 72.3011 17.2408 73.0569 21.9921C73.3201 23.5895 72.9376 25.2269 71.9956 26.5345C70.6538 28.3667 68.9403 29.0432 67.0414 29.9788C66.7162 30.139 65.9697 31.3446 65.5596 31.7081C63.5236 33.5122 60.8754 34.3083 58.2517 34.6964C55.863 35.0039 53.4366 34.7531 51.1581 33.963C49.0446 33.2129 45.9757 31.5964 45.1183 29.4564C43.0571 24.312 46.3417 21.4945 50.3533 19.6082C52.179 16.4811 56.0984 15.211 59.4913 14.977ZM50.3788 19.6898C49.5538 21.0704 49.0443 22.5034 49.4413 24.1341C49.9648 26.2056 51.2744 27.9832 53.0845 29.0792C55.1764 30.3446 58.2368 31.1397 60.6682 31.1188C62.5263 31.1079 65.1664 30.8045 66.8545 29.9605C67.7082 28.6147 68.1179 27.2307 67.782 25.641C67.4244 23.9483 66.0049 21.8326 64.5323 20.9295C61.9622 19.3534 59.5297 18.7059 56.5714 18.5743C54.2197 18.6445 52.63 18.8295 50.3788 19.6898Z" fill="#D23166"/>
<path d="M114.862 15.4876C115.725 15.3501 118.912 15.4467 120 15.4349C117.948 19.3057 115.637 23.1371 113.461 26.9454C112.441 28.7305 111.751 30.4676 110.814 32.218C108.642 36.2695 105.41 39.931 100.948 41.2958C98.418 42.0888 95.7307 42.2143 93.1398 41.6609C93.5704 40.1077 94.0238 38.3567 94.5137 36.8266C97.5512 38.474 99.9607 39.3353 103.549 38.3854C105.379 37.9011 107.652 35.8768 108.676 34.2435C106.818 34.258 104.96 34.2525 103.102 34.2273L96.25 21.0265C95.3953 19.3751 94.0112 17.1063 93.2925 15.4929L101.332 15.5012C102.103 16.9849 102.892 18.5005 103.701 19.9647C104.421 21.2678 104.927 22.641 105.563 23.9839C107.058 26.6924 108.436 29.5618 109.958 32.2427C111.967 28.7246 113.536 24.9253 115.716 21.483C117.082 19.3281 118.533 16.3809 114.725 15.9545L114.862 15.4876Z" fill="#D23166"/>
<path d="M114.725 15.9545L114.862 15.4876C115.136 15.5142 115.225 15.4704 115.386 15.6333C115.338 15.9185 114.946 15.9256 114.725 15.9545Z" fill="black"/>
<path d="M77.7025 15.4493C77.7177 14.607 77.842 13.5521 77.2513 12.8788C76.9125 12.4926 76.5571 12.6605 76.3676 12.346C76.4068 12.1747 76.4032 12.1195 76.5332 12.0024C77.3519 11.824 78.8337 11.7146 79.7223 11.6116L84.6574 11.0083C84.6809 12.502 84.6823 13.9961 84.6618 15.4899L89.6199 15.4883C90.0918 15.4877 91.7294 15.3787 91.9836 15.6156C92.0176 15.8396 92.0381 15.8781 91.9692 16.0845C90.0445 16.2536 86.7101 16.085 84.6552 16.1247L84.693 25.9096C84.6923 26.8474 84.7321 27.9566 84.6916 28.8657C84.4064 35.2869 88.4204 34.1217 91.8111 30.7751L91.807 33.3296C89.0059 34.6564 86.5669 35.0201 83.4971 34.6621C80.6798 34.3335 78.225 33.29 77.9067 30.0755C77.7687 28.6799 77.8381 27.1763 77.8371 25.7704C77.8327 23.7195 77.8106 21.6687 77.7707 19.6182C77.7618 18.9538 77.8434 17.6079 77.7107 17.052C77.3209 15.4203 74.0719 16.3897 72.893 16.0706C72.8865 15.8273 72.888 15.7773 72.9411 15.5407C73.1776 15.4152 75.8608 15.4783 76.3096 15.4818C76.7966 15.4576 77.2116 15.4426 77.7025 15.4493Z" fill="#D23166"/>
<path d="M72.893 16.0706C72.8865 15.8273 72.888 15.7773 72.9411 15.5407C73.1776 15.4152 75.8608 15.4783 76.3096 15.4818L76.7906 15.5547C76.594 15.856 76.6429 15.9533 76.3084 16.0004C75.3104 16.1409 73.8451 15.9279 72.893 16.0706Z" fill="black"/>
<path d="M37.3807 10C39.036 10.0372 40.6483 10.4555 41.1174 12.2511C40.8994 13.1717 40.422 13.6007 39.615 14.0161C38.327 14.6927 37.291 13.7948 36.1122 13.322C34.655 12.7374 32.9655 13.4127 32.1676 14.7667C31.1942 16.4186 30.5963 18.3336 29.7996 20.1004C28.0122 24.0642 25.8496 27.7737 24.454 31.9102C24.7178 32.6476 25.3449 33.9537 25.6792 34.715L19.5798 34.7226C19.4353 34.4444 19.2993 34.1385 19.1705 33.8515C17.2108 29.4881 14.4909 25.5263 12.6536 21.1064C12.2771 20.2006 11.6996 19.1699 11.2363 18.2938C10.599 17.0053 9.9397 15.7283 9.25878 14.463C8.88277 13.7526 8.26282 12.6301 8 11.9091C9.82285 11.8918 11.7999 11.8215 13.6087 11.8613C14.1919 12.6905 14.7412 14.004 15.2691 14.9218C17.6473 19.0561 19.5159 23.4137 21.9485 27.5162C22.6467 28.6937 23.4095 30.0117 24.0233 31.2231C24.6922 29.7303 25.1537 28.1154 25.8876 26.5808C27.126 23.9194 28.5298 21.3053 29.7214 18.622C31.4386 14.7547 32.2707 10.2701 37.3807 10Z" fill="#D23166"/>
<path d="M40.6354 15.1176L40.6754 15.1169C40.9061 15.3539 41.2555 29.7242 41.3025 31.3036C41.3253 32.0689 41.2489 32.8112 41.9222 33.4778C42.1828 33.7357 42.7455 33.9734 42.6797 34.3217C41.8938 34.4269 40.3107 34.3844 39.4621 34.3834C37.7537 34.3796 36.0454 34.3866 34.3371 34.4046C34.1719 34.3447 34.1844 34.2763 34.1677 34.1365C34.5281 33.5028 35.4051 33.9405 35.3306 32.4411C35.0856 27.5155 35.0251 22.522 34.6496 17.614C34.6051 17.0336 33.7071 16.8559 33.4151 16.5629C33.3799 16.3293 33.3724 16.4227 33.4935 16.1894C34.0953 16.0106 35.9507 15.8186 36.6749 15.7048C37.9235 15.5086 39.4075 15.2133 40.6354 15.1176Z" fill="#D23166"/>
</svg>
