<svg width="10" height="16" viewBox="0 0 10 16" fill="none" xmlns="http://www.w3.org/2000/svg">
<path d="M9.40312 14.5705V12.1185C8.60914 12.6502 7.83653 12.9137 7.08646 12.9137C6.73279 12.9137 6.33758 12.8022 5.8949 12.585C5.63024 12.4058 5.47477 12.2087 5.42848 11.988C5.29794 11.7222 5.21723 11.1477 5.21723 10.2624V6.35657H8.77767V3.98295H5.21723V0H3.1142C2.93736 0.928088 2.76053 1.58796 2.58251 1.98554C2.36413 2.47213 2.01046 2.91363 1.52505 3.31002C1.07445 3.68892 0.557308 3.98069 0 4.17046V6.35657H1.65679V11.7222C1.65679 12.3393 1.74343 12.8662 1.92145 13.3089C2.05319 13.6626 2.31785 14.0151 2.7178 14.3687C3.02519 14.6797 3.46668 14.9432 4.0411 15.1639C4.74725 15.3419 5.36321 15.4286 5.8949 15.4286C6.51204 15.4286 7.08646 15.3621 7.61578 15.2304C8.23949 15.0951 8.84113 14.873 9.40312 14.5705Z" fill="#F2F2F2"/>
</svg>
