<svg width="22" height="16" viewBox="0 0 22 16" fill="none" xmlns="http://www.w3.org/2000/svg">
<path d="M21.2742 7.6478C21.2742 7.59557 21.2742 7.53621 21.2719 7.46735C21.2695 7.27503 21.2647 7.05896 21.26 6.82865C21.241 6.1662 21.2078 5.50613 21.1555 4.88405C21.0843 4.02691 20.9798 3.31223 20.8374 2.77562C20.687 2.21563 20.3923 1.7049 19.9828 1.29449C19.5732 0.884079 19.063 0.588356 18.5034 0.436882C17.8314 0.25643 16.516 0.144836 14.664 0.0759793C13.7831 0.0427384 12.8405 0.0213691 11.8979 0.00949728C11.5679 0.00474857 11.2616 0.00237436 10.9861 0H10.2881C10.0127 0.00237436 9.70637 0.00474857 9.37634 0.00949728C8.43371 0.0213691 7.4911 0.0427384 6.61021 0.0759793C4.75821 0.14721 3.44044 0.258805 2.77087 0.436882C2.211 0.587984 1.70068 0.883582 1.29104 1.29405C0.881406 1.70452 0.586846 2.21545 0.436882 2.77562C0.292046 3.31223 0.189949 4.02691 0.118718 4.88405C0.066482 5.50613 0.033241 6.1662 0.0142461 6.82865C0.00712303 7.05896 0.00474868 7.27503 0.00237432 7.46735C0.00237432 7.53621 0 7.59557 0 7.6478V7.78077C0 7.833 -3.62652e-08 7.89236 0.00237432 7.96122C0.00474868 8.15354 0.00949739 8.36961 0.0142461 8.59992C0.033241 9.26237 0.066482 9.92244 0.118718 10.5445C0.189949 11.4017 0.29442 12.1163 0.436882 12.6529C0.740799 13.7903 1.63356 14.6878 2.77087 14.9917C3.44044 15.1721 4.75821 15.2837 6.61021 15.3526C7.4911 15.3858 8.43371 15.4072 9.37634 15.4191C9.70637 15.4238 10.0127 15.4262 10.2881 15.4286H10.9861C11.2616 15.4262 11.5679 15.4238 11.8979 15.4191C12.8405 15.4072 13.7831 15.3858 14.664 15.3526C16.516 15.2814 17.8338 15.1698 18.5034 14.9917C19.6407 14.6878 20.5334 13.7926 20.8374 12.6529C20.9822 12.1163 21.0843 11.4017 21.1555 10.5445C21.2078 9.92244 21.241 9.26237 21.26 8.59992C21.2671 8.36961 21.2695 8.15354 21.2719 7.96122C21.2719 7.89236 21.2742 7.833 21.2742 7.78077V7.6478ZM19.5647 7.77127C19.5647 7.82113 19.5647 7.87574 19.5623 7.93985C19.56 8.12505 19.5552 8.32924 19.5505 8.55006C19.5338 9.18164 19.5006 9.81322 19.4507 10.3997C19.3866 11.1642 19.2964 11.7911 19.1848 12.2113C19.0376 12.7598 18.6055 13.1943 18.0594 13.3391C17.5607 13.4721 16.3047 13.5789 14.5975 13.6431C13.7333 13.6763 12.8025 13.6977 11.8742 13.7095C11.5489 13.7143 11.2473 13.7167 10.9767 13.7167H10.2976L9.40008 13.7095C8.4717 13.6977 7.54333 13.6763 6.67669 13.6431C4.96953 13.5766 3.71112 13.4721 3.21488 13.3391C2.66878 13.1919 2.23664 12.7598 2.08943 12.2113C1.97784 11.7911 1.88761 11.1642 1.82351 10.3997C1.77364 9.81322 1.74278 9.18164 1.72378 8.55006C1.71666 8.32924 1.71429 8.12267 1.71191 7.93985C1.71191 7.87574 1.70954 7.81876 1.70954 7.77127V7.6573C1.70954 7.60744 1.70954 7.55283 1.71191 7.48872C1.71429 7.30352 1.71903 7.09933 1.72378 6.87851C1.7404 6.24693 1.77364 5.61535 1.82351 5.02889C1.88761 4.26434 1.97784 3.63751 2.08943 3.21725C2.23664 2.66878 2.66878 2.23427 3.21488 2.08943C3.71349 1.95647 4.96953 1.84962 6.67669 1.78552C7.54096 1.75227 8.4717 1.73091 9.40008 1.71903C9.72537 1.71429 10.0269 1.71191 10.2976 1.71191H10.9767L11.8742 1.71903C12.8025 1.73091 13.7309 1.75227 14.5975 1.78552C16.3047 1.852 17.5631 1.95647 18.0594 2.08943C18.6055 2.23664 19.0376 2.66878 19.1848 3.21725C19.2964 3.63751 19.3866 4.26434 19.4507 5.02889C19.5006 5.61535 19.5315 6.24693 19.5505 6.87851C19.5576 7.09933 19.56 7.3059 19.5623 7.48872C19.5623 7.55283 19.5647 7.60981 19.5647 7.6573V7.77127ZM8.52394 10.8959L14.0324 7.69054L8.52394 4.53265V10.8959Z" fill="#F2F2F2"/>
</svg>
